<svg width="30" height="31" viewBox="0 0 30 31" fill="none" xmlns="http://www.w3.org/2000/svg">
<path fill-rule="evenodd" clip-rule="evenodd" d="M13.4811 29.8706C13.2816 29.6715 13.1233 29.4351 13.0153 29.1748C12.9073 28.9145 12.8517 28.6354 12.8517 28.3536C12.8517 28.0718 12.9073 27.7927 13.0153 27.5324C13.1233 27.2721 13.2816 27.0357 13.4811 26.8367L24.824 15.4981L13.4811 4.15955C13.0788 3.75723 12.8528 3.21157 12.8528 2.6426C12.8528 2.07364 13.0788 1.52797 13.4811 1.12565C13.8835 0.723333 14.4291 0.497314 14.9981 0.497314C15.5671 0.497314 16.1127 0.723333 16.515 1.12565L29.3705 13.9812C29.5701 14.1802 29.7284 14.4166 29.8364 14.6769C29.9444 14.9372 30 15.2163 30 15.4981C30 15.7799 29.9444 16.059 29.8364 16.3193C29.7284 16.5796 29.5701 16.816 29.3705 17.0151L16.515 29.8706C16.316 30.0701 16.0796 30.2284 15.8193 30.3364C15.559 30.4444 15.2799 30.5 14.9981 30.5C14.7163 30.5 14.4372 30.4444 14.1769 30.3364C13.9166 30.2284 13.6802 30.0701 13.4811 29.8706Z" fill="#1A1A1A"/>
<path fill-rule="evenodd" clip-rule="evenodd" d="M0 15.4981C-2.48389e-08 14.9299 0.225736 14.3849 0.627549 13.9831C1.02936 13.5813 1.57433 13.3555 2.14258 13.3555L23.5684 13.3555C24.1367 13.3555 24.6816 13.5813 25.0835 13.9831C25.4853 14.3849 25.711 14.9299 25.711 15.4981C25.711 16.0664 25.4853 16.6113 25.0835 17.0131C24.6816 17.415 24.1367 17.6407 23.5684 17.6407H2.14258C1.57434 17.6407 1.02936 17.415 0.627549 17.0131C0.225736 16.6113 2.48389e-08 16.0664 0 15.4981Z" fill="#1A1A1A"/>
</svg>
