<svg width="7" height="8" viewBox="0 0 7 8" fill="none" xmlns="http://www.w3.org/2000/svg">
<path fill-rule="evenodd" clip-rule="evenodd" d="M3.14598 7.85311C3.09941 7.80666 3.06247 7.75149 3.03727 7.69074C3.01206 7.62999 2.99908 7.56487 2.99908 7.49911C2.99908 7.43334 3.01206 7.36822 3.03727 7.30747C3.06247 7.24673 3.09941 7.19155 3.14598 7.14511L5.79298 4.49911L3.14598 1.85311C3.05209 1.75922 2.99935 1.63188 2.99935 1.49911C2.99935 1.36633 3.05209 1.23899 3.14598 1.14511C3.23986 1.05122 3.3672 0.998475 3.49998 0.998475C3.63275 0.998475 3.76009 1.05122 3.85398 1.14511L6.85398 4.14511C6.90054 4.19155 6.93748 4.24673 6.96269 4.30747C6.9879 4.36822 7.00087 4.43334 7.00087 4.49911C7.00087 4.56487 6.9879 4.62999 6.96269 4.69074C6.93748 4.75149 6.90054 4.80666 6.85398 4.85311L3.85398 7.85311C3.80753 7.89967 3.75236 7.93661 3.69161 7.96182C3.63087 7.98703 3.56575 8 3.49998 8C3.43421 8 3.36909 7.98703 3.30834 7.96182C3.2476 7.93661 3.19242 7.89967 3.14598 7.85311Z" fill="#1A1A1A"/>
<path fill-rule="evenodd" clip-rule="evenodd" d="M-2.18557e-08 4.49911C-2.76522e-08 4.3665 0.0526785 4.23932 0.146447 4.14555C0.240215 4.05179 0.367392 3.99911 0.5 3.99911L5.5 3.99911C5.63261 3.99911 5.75979 4.05179 5.85355 4.14555C5.94732 4.23932 6 4.3665 6 4.49911C6 4.63172 5.94732 4.75889 5.85355 4.85266C5.75979 4.94643 5.63261 4.99911 5.5 4.99911L0.5 4.99911C0.367392 4.99911 0.240215 4.94643 0.146447 4.85266C0.0526785 4.75889 -1.60592e-08 4.63172 -2.18557e-08 4.49911Z" fill="#1A1A1A"/>
</svg>
